# xmcd
#
# Track frame offsets: 
#        150
#        28153
#        56284
#        59803
#        107592
#        126974
#        155000
#        199304
#        231941
#
# Disc length: 4219 seconds
#
# Revision: 0
# Processed by: cddbd v1.5.2PL0 Copyright (c) Steve Scherf et al.
# Submitted via: ExactAudioCopy v1.3
#
DISCID=82107909
DTITLE=Matt Schofield - Live From the Archive
DYEAR=2010
DGENRE=British Blues, Electric Blues, Blues Rock
TTITLE0=All You Need
TTITLE1=Siftin' Thru Ashes
TTITLE2=Band Intro
TTITLE3=Lights Are On But Nobody's Home
TTITLE4=Room At The Back
TTITLE5=On My Way
TTITLE6=Black Cat Bone
TTITLE7=Sitting On Top Of The World
TTITLE8=The Letter
EXTD=
EXTT0=
EXTT1=
EXTT2=
EXTT3=
EXTT4=
EXTT5=
EXTT6=
EXTT7=
EXTT8=
PLAYORDER=
